HIERARCHY
ROOT Hips
{
  OFFSET 0 89.5177 0.535
  CHANNELS 6 Xposition Yposition Zposition Zrotation Xrotation Yrotation
  JOINT Spine
  {
    OFFSET 12.0259 -0.162855 1.69034e-005
    CHANNELS 3 Zrotation Xrotation Yrotation
    JOINT Spine1
    {
      OFFSET 15.3169 -0.0121922 0
      CHANNELS 3 Zrotation Xrotation Yrotation
      JOINT Spine2
      {
        OFFSET 15.3176 -0.0121908 0
        CHANNELS 3 Zrotation Xrotation Yrotation
        JOINT Neck
        {
          OFFSET 19.9142 1.56338 0
          CHANNELS 3 Zrotation Xrotation Yrotation
          JOINT Head
          {
            OFFSET 6.92651 0 0
            CHANNELS 3 Zrotation Xrotation Yrotation
            End Site
            {
              OFFSET 20.7666 0 0
            }
          }
          JOINT LeftShoulder
          {
            OFFSET -6.20654 0.708824 7.28219
            CHANNELS 3 Zrotation Xrotation Yrotation
            JOINT LeftArm
            {
              OFFSET 14.108 0 -1.52588e-005
              CHANNELS 3 Zrotation Xrotation Yrotation
              JOINT LeftForeArm
              {
                OFFSET 28.5802 0 0
                CHANNELS 3 Zrotation Xrotation Yrotation
                JOINT LeftHand
                {
                  OFFSET 27.092 0 0
                  CHANNELS 3 Zrotation Xrotation Yrotation
                  End Site
                  {
                    OFFSET 9.55928 -0.186424 0.145352
                  }
                }
              }
            }
          }
          JOINT RightShoulder
          {
            OFFSET -6.20654 0.708866 -7.28218
            CHANNELS 3 Zrotation Xrotation Yrotation
            JOINT RightArm
            {
              OFFSET 14.108 0 1.52588e-005
              CHANNELS 3 Zrotation Xrotation Yrotation
              JOINT RightForeArm
              {
                OFFSET 28.5802 0 0
                CHANNELS 3 Zrotation Xrotation Yrotation
                JOINT RightHand
                {
                  OFFSET 27.092 0 0
                  CHANNELS 3 Zrotation Xrotation Yrotation
                  End Site
                  {
                    OFFSET 9.55929 -0.186417 -0.145354
                  }
                }
              }
            }
          }
        }
      }
    }
  }
  JOINT LeftUpLeg
  {
    OFFSET 0.005 -0.535 8.837
    CHANNELS 3 Zrotation Xrotation Yrotation
    JOINT LeftLeg
    {
      OFFSET 39.9035 0 0
      CHANNELS 3 Zrotation Xrotation Yrotation
      JOINT LeftFoot
      {
        OFFSET 39.6689 0 0
        CHANNELS 3 Zrotation Xrotation Yrotation
        JOINT LeftToe
        {
          OFFSET 10.1624 13.6296 0
          CHANNELS 3 Zrotation Xrotation Yrotation
          End Site
          {
            OFFSET 8.38147 0 0
          }
        }
      }
    }
  }
  JOINT RightUpLeg
  {
    OFFSET 0.005 -0.535 -8.837
    CHANNELS 3 Zrotation Xrotation Yrotation
    JOINT RightLeg
    {
      OFFSET 39.9035 0 0
      CHANNELS 3 Zrotation Xrotation Yrotation
      JOINT RightFoot
      {
        OFFSET 39.6689 0 0
        CHANNELS 3 Zrotation Xrotation Yrotation
        JOINT RightToe
        {
          OFFSET 10.1624 13.6296 0
          CHANNELS 3 Zrotation Xrotation Yrotation
          End Site
          {
            OFFSET 8.38147 0 0
          }
        }
      }
    }
  }
}
MOTION
Frames:	19
Frame Time:	0.0333333
581.844 85.4405 -174.82 113.614 54.0123 -19.2959 -0.501281 -1.6606 -1.83799 -1.05626 -3.30373 -3.69257 -1.05626 -3.30373 -3.69258 -8.30907e-012 -9.0191e-006 -5.27751e-005 -2.79064 9.34763 -3.1679 179.174 3.43559 -76.4711 -30.237 18.9302 69.1229 -92.6751 2.38542e-015 -0 -72.0372 -48.3286 -77.1433 -177.103 8.56755 71.2408 -9.16938 -26.2446 -65.9456 -120.243 9.54166e-015 -3.18055e-015 -71.1361 28.5984 53.012 -20.6149 3.45463 177.882 -32.1933 6.36111e-015 4.77083e-015 26.7619 6.69909 2.13422 90 -9.93923e-017 -3.18055e-015 -38.1221 -10.6872 179.611 -36.2963 -6.36111e-015 -0 10.3577 -1.51706 -4.27724 90 -2.98177e-016 -3.18055e-015 
582.699 85.4743 -176.634 114.357 54.614 -19.5632 -0.583756 -1.63306 -1.86742 -1.22118 -3.24567 -3.75347 -1.22118 -3.24567 -3.75348 -8.30589e-012 -9.0191e-006 -5.27751e-005 -1.22336 9.47838 -3.35594 179.255 3.09628 -76.4606 -30.0321 19.2345 68.1616 -93.3985 1.59028e-015 3.18055e-015 -67.4331 -46.3838 -70.3609 -177.104 8.57112 71.2535 -9.78542 -27.2056 -65.5289 -121.389 -1.59028e-015 -3.18055e-015 -72.697 24.0742 49.3284 -22.9459 4.65021 177.997 -33.8244 0 -0 27.6549 8.28171 1.55965 90 -1.98785e-016 -0 -38.4789 -10.3585 177.288 -43.5157 -6.36111e-015 -4.77083e-015 14.1011 -0.53687 -2.53988 90 3.97569e-016 3.18055e-015 
583.463 85.4451 -178.232 114.384 55.0762 -18.9743 -0.588909 -1.43848 -1.92442 -1.22638 -2.85581 -3.86516 -1.22638 -2.85581 -3.86517 -8.30589e-012 -9.0191e-006 -5.27751e-005 0.295298 9.00455 -4.05132 179.339 2.66575 -76.0739 -29.7045 19.6492 66.8473 -92.8215 0 1.59028e-015 -65.299 -45.596 -66.9527 -177.182 8.2209 71.0067 -9.88895 -27.3844 -65.9255 -119.45 1.59028e-015 9.54166e-015 -74.8039 19.3356 45.2089 -24.532 5.19802 177.64 -34.8548 0 4.77083e-015 27.5975 9.03225 1.27728 90 -3.97569e-016 -3.18055e-015 -37.061 -10.3926 174.788 -47.8137 0 -1.59028e-015 17.0638 -0.00253814 -0.651147 90 0 -9.54166e-015 
584.024 85.3778 -179.701 113.438 54.7426 -17.3395 -0.582346 -1.06195 -1.96202 -1.20101 -2.10281 -3.93555 -1.20101 -2.10281 -3.93556 -8.30589e-012 -9.0191e-006 -5.27751e-005 1.52494 8.40197 -5.07183 179.416 2.21046 -75.2066 -28.4481 20.6408 65.5159 -91.7318 -7.95139e-016 -0 -62.5458 -45.5621 -63.2681 -177.369 7.61499 70.8728 -10.3321 -26.6776 -66.7416 -113.657 -2.38542e-015 -0 -77.6369 14.5029 41.065 -25.4333 6.12442 177.401 -35.4699 6.36111e-015 -3.18055e-015 27.0313 9.2312 1.04388 90 0 6.36111e-015 -34.5179 -10.6573 172.482 -49.9917 3.18056e-015 6.36111e-015 19.8379 1.01115 0.111067 90 0 -0 
584.399 85.2959 -181.044 112.307 53.9571 -15.5602 -0.602671 -0.642926 -1.9986 -1.2275 -1.26394 -4.00405 -1.2275 -1.26394 -4.00406 -8.30748e-012 -9.0191e-006 -5.27751e-005 2.84351 7.93559 -5.98913 179.463 1.89258 -74.1621 -25.9891 22.332 64.1003 -91.0909 -2.38542e-015 -3.18055e-015 -62.6039 -46.2467 -64.0571 -177.564 7.0945 70.9966 -11.7569 -24.2888 -68.1381 -102.918 1.59028e-015 9.54166e-015 -79.2476 10.7853 36.6342 -26.1003 7.25602 177.39 -35.9077 -3.18055e-015 -3.18055e-015 26.3357 9.20166 0.798422 90 0 -9.54166e-015 -31.1441 -12.2087 170.286 -49.5829 0 3.18056e-015 23.1225 2.20001 -1.30759 90 -1.59028e-015 -3.18055e-015 
584.546 85.2094 -182.32 111.102 52.9106 -13.8948 -0.652133 -0.235197 -2.01748 -1.31215 -0.446809 -4.03738 -1.31215 -0.446809 -4.03738 -8.31225e-012 -9.0191e-006 -5.27751e-005 4.28557 7.60411 -6.4604 179.615 1.27077 -73.1653 -23.159 24.424 62.4464 -90.703 0 -3.18055e-015 -63.235 -47.4865 -65.6367 -177.722 6.65112 71.044 -13.7666 -20.498 -69.1655 -87.9579 0 -6.36111e-015 -78.2485 10.2581 32.3108 -26.6371 8.29596 177.735 -36.287 6.36111e-015 1.59028e-015 25.5463 9.04383 0.46252 90 -3.97569e-016 -3.18055e-015 -27.0941 -14.449 168.383 -46.2793 3.18056e-015 -3.18056e-015 25.7493 2.43008 -1.39928 90 0 6.36111e-015 
584.487 85.1316 -183.554 109.824 51.7645 -12.3922 -0.73197 0.197721 -2.00885 -1.45657 0.421428 -4.01488 -1.45657 0.421428 -4.01489 -8.30589e-012 -9.0191e-006 -5.27751e-005 5.86707 6.84259 -6.4045 179.752 0.787501 -72.5144 -20.2659 26.6546 60.7767 -90.274 7.95139e-016 -0 -61.5871 -49.0767 -64.045 -177.756 6.42007 70.6908 -16.7141 -15.9197 -69.3109 -70.5899 0 -9.54166e-015 -71.7142 14.5828 30.4578 -26.999 8.95694 178.363 -36.5287 0 3.18055e-015 24.4764 8.61629 0.0519962 90 0 -9.54166e-015 -22.6609 -16.7182 167 -41.0831 3.18056e-015 -3.18056e-015 27.1448 1.63625 0.572041 90 0 3.18055e-015 
583.971 85.3644 -184.038 102.58 50.2968 -4.06756 -0.0506514 0.848682 -2.38837 -0.0658881 1.69921 -4.7766 -0.065888 1.69921 -4.77661 -8.30907e-012 -9.0191e-006 -5.27751e-005 7.37782 5.722 -6.45095 179.906 0.289434 -72.0261 -17.8263 28.5879 59.1747 -89.7619 1.59028e-015 9.54166e-015 -59.3363 -50.495 -61.9068 -177.765 6.07289 69.7489 -19.7866 -11.6402 -68.2316 -55.4492 -1.59028e-015 3.18055e-015 -60.2233 21.5641 28.6587 -20.7028 8.77644 176.36 -32.757 -9.54166e-015 -0 20.4801 6.28878 -0.219246 90 -9.93923e-017 -1.27222e-014 -13.7525 -15.4741 164.524 -33.9334 6.36111e-015 -3.18056e-015 27.4993 -0.154339 4.62624 90 0 -0 
583.787 85.3035 -185.903 103.107 47.7448 -4.88796 -0.307672 1.44768 -2.12166 -0.56177 2.90621 -4.23737 -0.56177 2.90621 -4.23738 -8.30907e-012 -9.0191e-006 -5.27751e-005 8.57097 4.76803 -7.18541 -179.9 -0.301149 -71.5731 -15.7346 29.9953 57.4645 -89.3049 1.59028e-015 6.36111e-015 -56.9718 -52.4684 -59.8687 -177.986 5.23092 68.9143 -20.3662 -7.41865 -66.6895 -45.2154 0 1.59028e-015 -39.0566 29.5614 22.185 -22.7488 10.3076 178.68 -33.4571 3.18055e-015 -1.59028e-015 19.3739 6.01371 -1.05632 90 4.96962e-017 3.18055e-015 -10.6141 -14.6572 165.692 -26.6227 -6.36111e-015 -3.18056e-015 26.2215 -3.19975 9.16675 90 4.96962e-017 3.18055e-015 
583.386 85.2176 -187.742 102.519 45.6763 -4.98691 -0.321891 1.88332 -1.81807 -0.584276 3.77635 -3.62829 -0.584276 3.77635 -3.6283 -8.30748e-012 -9.0191e-006 -5.27751e-005 9.32984 4.44592 -8.24163 -179.635 -1.08463 -71.3932 -14.3253 30.7153 56.0768 -88.9669 0 3.18055e-015 -55.7573 -53.9306 -59.2811 -178.368 4.28303 69.1206 -18.2739 -1.93104 -66.4015 -36.2006 -3.18055e-015 6.36111e-015 -13.0806 36.9062 14.6747 -24.0117 11.5585 -178.782 -34.2852 3.18055e-015 -3.18055e-015 18.7326 5.85323 -2.07366 90 3.03321e-020 9.54166e-015 -9.53594 -9.41875 167.775 -26.3259 0 -0 26.8293 -4.47385 8.18007 90 1.81993e-020 3.18055e-015 
583.231 84.9295 -190.048 103.955 44.1748 -7.74181 -0.546487 2.13081 -1.35778 -1.04335 4.27435 -2.69778 -1.04335 4.27435 -2.69779 -8.30987e-012 -9.0191e-006 -5.27751e-005 9.24325 4.50013 -8.75492 -179.523 -1.43608 -71.6241 -13.3318 30.9438 55.2435 -88.8869 1.59028e-015 -9.54166e-015 -54.8963 -54.8927 -58.838 -178.855 3.11306 69.793 -14.4733 1.17253 -66.783 -30.5185 0 3.18055e-015 -7.64761 41.0381 12.4495 -28.2075 11.643 -175.015 -36.7999 -6.36111e-015 -0 18.8135 5.8035 -3.14038 90 -1.21329e-020 1.90833e-014 -13.6858 -10.2822 170.451 -29.9443 0 3.18056e-015 27.4204 -6.5446 6.89704 90 -1.21329e-020 -6.36111e-015 
582.977 84.5891 -192.35 104.883 44.5831 -11.5851 -0.598708 2.0208 -0.667991 -1.17489 4.0488 -1.31586 -1.17489 4.0488 -1.31587 -8.30669e-012 -9.0191e-006 -5.27751e-005 8.17922 4.55771 -8.59289 -179.646 -1.08786 -71.983 -12.5779 30.6703 54.9511 -88.9848 -1.59028e-015 -0 -53.6763 -55.1389 -57.2268 -179.057 2.70012 70.7474 -11.8632 1.92339 -67.3325 -29.5482 6.36111e-015 3.18055e-015 -12.4882 44.6765 13.9857 -32.3913 9.231 -170.755 -39.8233 9.54166e-015 7.95139e-015 18.8515 6.30324 -4.22145 90 1.81993e-020 -9.54166e-015 -14.3837 -8.18176 175.603 -30.9309 -3.18056e-015 -0 27.2632 -3.43484 4.83983 90 2.42657e-020 -6.36111e-015 
583.134 84.1791 -194.278 106.874 45.1755 -14.4777 -0.666227 1.87662 -0.337518 -1.32245 3.75747 -0.653517 -1.32245 3.75747 -0.653526 -8.3043e-012 -9.0191e-006 -5.27751e-005 6.53708 4.5997 -8.22482 -179.875 -0.382975 -71.9795 -12.9097 29.4961 55.2505 -88.9333 1.59028e-015 -0 -52.1182 -55.532 -55.105 -178.862 3.24361 70.66 -11.7563 0.805858 -66.0392 -32.7486 0 -1.59028e-015 -23.1589 49.0942 22.5053 -36.1128 6.93941 -169.04 -41.6608 6.36111e-015 1.59028e-015 18.3113 6.12075 -4.93317 90 -1.21329e-020 6.36111e-015 -18.351 -13.6528 176.491 -34.1154 -6.36111e-015 3.18056e-015 27.7264 -7.0483 4.19865 90 -1.21329e-020 1.27222e-014 
583.285 84.2128 -195.702 106.867 46.82 -14.1662 -0.409387 1.58973 -0.309053 -0.810662 3.18208 -0.606906 -0.810661 3.18208 -0.606915 -8.30907e-012 -9.0191e-006 -5.27751e-005 5.34196 4.74313 -7.72611 179.966 0.101525 -71.4406 -14.8847 27.5718 56.0746 -87.8726 0 -0 -51.499 -55.523 -54.4792 -178.746 3.36785 69.5587 -10.6178 -0.884146 -63.5814 -37.4533 0 -0 -36.9465 48.8578 33.6814 -36.2002 5.28515 -169.934 -40.5202 1.27222e-014 1.59028e-015 16.474 5.55824 -5.32285 90 7.76503e-019 -0 -19.4976 -15.9512 175.948 -35.5756 -3.18056e-015 -0 28.1862 -7.79302 3.48955 90 -4.96962e-017 -3.18055e-015 
583.242 84.4014 -196.794 107.1 48.4075 -14.1534 -0.313341 1.32669 -0.276978 -0.620515 2.65533 -0.546739 -0.620515 2.65533 -0.546748 -8.30748e-012 -9.0191e-006 -5.27751e-005 5.56022 4.87844 -7.17137 179.764 0.704149 -71.4352 -17.888 25.019 57.9512 -85.1498 -3.18055e-015 -6.36111e-015 -50.2857 -54.4802 -52.7128 -178.628 3.52534 68.7118 -7.79419 -2.09334 -62.1063 -42.9017 0 3.18055e-015 -47.3099 45.9647 41.8259 -36.4546 4.68294 -170.701 -38.8962 -6.36111e-015 -3.97569e-015 14.4031 6.64193 -5.6039 90 -4.96962e-017 -0 -19.6196 -16.8157 176.034 -35.4667 0 1.59028e-015 27.7178 -7.25932 2.69222 90 -4.96962e-017 3.18055e-015 
583.254 84.5112 -197.627 107.969 49.7059 -14.9886 -0.40143 1.10324 -0.231811 -0.798618 2.20853 -0.455836 -0.798618 2.20853 -0.455846 -8.30907e-012 -9.0191e-006 -5.27751e-005 5.95929 5.71399 -6.95152 179.523 1.45515 -71.8582 -21.2051 22.1478 60.08 -81.4342 -1.59028e-015 1.27222e-014 -51.4018 -53.5137 -53.7105 -178.385 4.10138 68.488 -4.6679 -2.77804 -62.1371 -48.3745 -6.36111e-015 4.77083e-015 -55.6299 42.6424 48.2856 -38.3867 4.56785 -170.31 -39.3316 0 -2.38542e-015 13.2679 7.7497 -10.3074 90 3.97569e-016 -6.36111e-015 -20.0102 -17.7747 176.297 -35.3002 3.18056e-015 -0 27.389 -6.9309 2.14654 90 -2.48481e-017 -3.18055e-015 
583.453 84.7301 -198.104 107.967 51.8627 -14.5699 -0.345468 0.710679 -0.326486 -0.686962 1.42377 -0.648582 -0.686962 1.42377 -0.648591 -8.30748e-012 -9.0191e-006 -5.27751e-005 5.67964 7.27514 -7.11808 179.256 2.34091 -72.3548 -24.3459 19.3864 61.9459 -78.1927 1.59028e-015 -0 -55.106 -52.1346 -58.3914 -178.413 4.13509 68.9823 0.0493142 -3.78322 -63.4893 -55.4907 0 -3.18055e-015 -61.6112 42.1195 54.8019 -37.8899 4.5134 -171.586 -37.3004 -9.54166e-015 -3.18055e-015 11.0534 7.28663 -10.4003 90 -7.95139e-016 -6.36111e-015 -19.8182 -19.5918 175.32 -35.0593 -3.18056e-015 -4.77083e-015 27.2078 -6.92005 1.97316 90 4.96962e-017 -6.36111e-015 
583.584 84.9077 -198.382 108.885 52.9934 -15.1364 -0.40247 0.466091 -0.37132 -0.801952 0.935237 -0.739219 -0.801952 0.935237 -0.739228 -8.30669e-012 -9.0191e-006 -5.27751e-005 4.35683 9.20638 -7.46171 179.034 3.11508 -72.761 -27.4535 16.2702 63.3897 -75.4803 -3.18055e-015 -9.54166e-015 -59.6949 -50.4103 -63.9695 -178.493 4.01477 69.4002 5.03859 -4.82547 -64.8851 -63.726 3.18055e-015 3.18055e-015 -66.8709 43.4687 62.2786 -38.691 5.8126 -171.674 -36.2115 -9.54166e-015 -1.59028e-015 8.90543 6.84548 -10.1827 90 0 9.54166e-015 -20.1414 -20.7913 174.829 -34.6385 -6.36111e-015 -1.59028e-015 27.0321 -6.99824 1.90519 90 0 9.54166e-015 
583.781 85.0781 -198.499 109.925 53.7156 -15.7267 -0.473497 0.240162 -0.394006 -0.945343 0.484034 -0.785847 -0.945343 0.484034 -0.785857 -8.30828e-012 -9.0191e-006 -5.27751e-005 2.18132 11.5426 -7.96644 178.941 3.46968 -73.0172 -30.7054 12.8092 64.5069 -73.4077 -2.38542e-015 -9.54166e-015 -64.679 -48.5592 -69.8651 -178.571 3.81324 69.4444 8.85767 -5.85765 -65.3847 -71.9418 0 -3.18055e-015 -68.3833 45.4502 65.0779 -39.9044 6.68751 -171.265 -35.6592 -3.18055e-015 -3.97569e-015 6.89 6.69263 -12.1508 90 -3.97569e-016 3.18055e-015 -20.626 -21.6074 174.253 -34.2189 3.18056e-015 1.59028e-015 26.8318 -7.0873 1.95977 90 4.96962e-017 -0 
